<?xml version="1.0" standalone="no"?>
<!DOCTYPE svg PUBLIC "-//W3C//DTD SVG 20010904//EN"
 "http://www.w3.org/TR/2001/REC-SVG-20010904/DTD/svg10.dtd">
<svg version="1.0" xmlns="http://www.w3.org/2000/svg"
 width="200.000000pt" height="153.000000pt" viewBox="0 0 200.000000 153.000000"
 preserveAspectRatio="xMidYMid meet">

<g transform="translate(0.000000,153.000000) scale(0.100000,-0.100000)"
fill="#000000" stroke="none">
<path d="M1464 925 c-120 -151 -219 -279 -219 -286 0 -6 18 -27 41 -45 l40
-34 125 151 124 151 3 -236 2 -236 55 0 55 0 0 405 c0 223 -1 405 -3 405 -2 0
-102 -124 -223 -275z"/>
<path d="M97 1003 c-4 -104 -7 -295 -7 -426 l0 -239 193 4 c174 3 197 5 242
26 27 13 60 33 73 45 90 83 81 235 -18 320 l-39 33 29 45 c90 134 77 260 -33
328 -60 37 -141 51 -293 51 l-141 0 -6 -187z m308 91 c98 -51 114 -166 33
-241 -31 -29 -100 -53 -154 -53 l-44 0 0 161 0 161 63 -4 c36 -2 79 -12 102
-24z m20 -383 c65 -30 79 -53 83 -134 5 -123 -40 -164 -190 -175 l-78 -5 0
114 c0 63 3 138 6 167 l7 52 66 0 c42 0 80 -7 106 -19z"/>
<path d="M700 781 l0 -391 65 0 65 0 0 225 0 226 31 -23 c17 -13 75 -75 129
-138 112 -132 244 -262 311 -308 169 -115 366 -166 564 -147 83 7 84 17 5 30
-75 12 -212 61 -306 108 -195 99 -321 211 -564 502 -169 202 -195 230 -262
280 l-38 27 0 -391z"/>
</g>
</svg>
